<svg xmlns="http://www.w3.org/2000/svg" width="137.453125" height="35" viewBox="0 0 137.453125 35" class="badge-svg" data-v-c399ef7e=""><defs data-v-c399ef7e=""><!----><!----><!----></defs><path data-v-c399ef7e="" d="M 10 0 L 83.671875 0 L 83.671875 35 L 10 35 Q 0 35 0 25 L 0 10 Q 0 0 10 0 Z" fill="#e34f26"/><!--[--><path data-v-c399ef7e="" d="M 83.671875 0 L 127.453125 0 Q 137.453125 0 137.453125 10 L 137.453125 25 Q 137.453125 35 127.453125 35 L 83.671875 35 Z" fill="#e34f26"/><!--]--><!----><text x="41.8359375" y="17.5" dy="0.35em" font-size="14" font-family="Roboto, sans-serif" fill="#FFFFFF" text-anchor="middle" letter-spacing="2" font-weight="900" font-style="normal" text-decoration="none" fill-opacity="1" font-variant="normal" style="text-transform:uppercase;" data-v-c399ef7e="">HTML5</text><g data-v-c399ef7e="" transform="translate(93.671875, 5.5) scale(1)"><path data-v-c399ef7e="" d="M1.5 0h21l-1.91 21.563L11.977 24l-8.564-2.438L1.5 0zm7.031 9.75l-.232-2.718 10.059.003.23-2.622L5.412 4.41l.698 8.01h9.126l-.326 3.426-2.91.804-2.955-.81-.188-2.11H6.248l.33 4.171L12 19.351l5.379-1.443.744-8.157H8.531z" fill="#FFFFFF"/></g><text x="124.5625" y="17.5" dy="0.35em" font-size="8" font-family="Montserrat, sans-serif" fill="#FFFFFF" text-anchor="middle" font-weight="400" letter-spacing="0" font-style="normal" text-decoration="none" fill-opacity="1" font-variant="normal" style="text-transform: lowercase;" data-v-c399ef7e=""> </text><!----></svg>